/* XPM */
static char *_9e792f40b1f407089d4d769230277a2y1oR2kS4hxt2tPAT[] = {
/* columns rows colors chars-per-pixel */
"32 16 2 1 ",
"  c #757579",
". c #868686",
/* pixels */
"  .. .    . .... . .. . ...   . ",
"..  .. .. ... . . .. .   .. .  .",
".    . . .  ..  .  .      . ... ",
"  .  ... .. .  ....   ..   ..  .",
". ..  . .  ...  .  .  . .... .. ",
". . .  .. ... . ...... .   ...  ",
" . .  .. . .. .    .  ..  . . ..",
" ..  . ... ..  ..   .  ... . . .",
". ...   .   .   ........   .... ",
"   .   .    .. . .  . .  ..  . .",
"..   . . .. . .. .... .  . ..   ",
".    .   .. .. . .      .   .   ",
" . .  .  . ..    ..  .. .    .. ",
" . ......... .... ... .    ... .",
". ..  ... . .  ..   . .   . . . ",
".  . . ... . . . . . ..  . . . ."
};
