/* XPM */
static char *_0ce4fc415104453ccd49af1b873dcb4UD3nnfXAWjogKdc8[] = {
/* columns rows colors chars-per-pixel */
"56 45 230 2 ",
"   c #5E3203",
".  c #742806",
"X  c #703605",
"o  c #345D1B",
"O  c #2B641C",
"+  c #35621E",
"@  c #365E26",
"#  c #365E2B",
"$  c #2E6423",
"%  c #2E6429",
"&  c #336324",
"*  c #34622A",
"=  c #396427",
"-  c #3E7735",
";  c #366231",
":  c #565609",
">  c #505510",
",  c #635800",
"<  c #754804",
"1  c #5C6E19",
"2  c #5D731A",
"3  c #476B1E",
"4  c #6A6D05",
"5  c #666E0B",
"6  c #6B6E0C",
"7  c #64670C",
"8  c #736C02",
"9  c #726D0B",
"0  c #7A6A04",
"q  c #6C710C",
"w  c #687108",
"e  c #71720B",
"r  c #747203",
"t  c #6C6E12",
"y  c #656C15",
"u  c #746C14",
"i  c #6C7212",
"p  c #63721B",
"a  c #677317",
"s  c #727113",
"d  c #475A25",
"f  c #4C6E29",
"g  c #596C26",
"h  c #4D752C",
"j  c #4D792D",
"k  c #48772B",
"l  c #5D7324",
"z  c #53752C",
"x  c #5B722B",
"c  c #537A2D",
"v  c #587626",
"b  c #596E34",
"n  c #4C7534",
"m  c #437A36",
"M  c #4C7934",
"N  c #45753C",
"B  c #4B753C",
"V  c #447B3B",
"C  c #497B3B",
"Z  c #437534",
"A  c #537433",
"S  c #5B7333",
"D  c #527A33",
"F  c #53743B",
"G  c #57783B",
"H  c #4A6C3B",
"J  c #666C27",
"K  c #637222",
"L  c #64742B",
"P  c #646A31",
"I  c #766437",
"U  c #627437",
"Y  c #776528",
"T  c #775E35",
"R  c #3C794A",
"E  c #39765E",
"W  c #2C7373",
"Q  c #31766D",
"!  c #4D4E4D",
"~  c #4B494A",
"^  c #534E4E",
"/  c #4D524D",
"(  c #495548",
")  c #51514E",
"_  c #4D4E51",
"`  c #524F52",
"'  c #4E5151",
"]  c #515152",
"[  c #535359",
"{  c #496D47",
"}  c #556D48",
"|  c #4C7443",
" . c #457B42",
".. c #4A7A42",
"X. c #4E734A",
"o. c #457647",
"O. c #52724B",
"+. c #537645",
"@. c #566B52",
"#. c #5D6D5B",
"$. c #5A6D57",
"%. c #5A7255",
"&. c #5D7159",
"*. c #567553",
"=. c #487654",
"-. c #626D5E",
";. c #666B54",
":. c #6D6B4E",
">. c #5E6D62",
",. c #5F7163",
"<. c #636C62",
"1. c #666B65",
"2. c #667164",
"3. c #981900",
"4. c #B81D05",
"5. c #9B3407",
"6. c #8F2802",
"7. c #AA2708",
"8. c #B8280A",
"9. c #B42E0B",
"0. c #C92404",
"q. c #C43814",
"w. c #C4350F",
"e. c #9D4918",
"r. c #8A5B19",
"t. c #8A4E0E",
"y. c #A3491C",
"u. c #87631A",
"i. c #9C4D24",
"p. c #995228",
"a. c #8E582C",
"s. c #A64B24",
"d. c #A55229",
"f. c #987A3B",
"g. c #84622B",
"h. c #8E7D51",
"j. c #917D49",
"k. c #48803D",
"l. c #7F8A39",
"z. c #3E867B",
"x. c #7C884B",
"c. c #538C5F",
"v. c #93883B",
"b. c #A9A43D",
"n. c #A88F3B",
"m. c #82884B",
"M. c #988745",
"N. c #979243",
"B. c #8E8F56",
"V. c #B9994D",
"C. c #BA9756",
"Z. c #AD9B56",
"A. c #9BA64A",
"S. c #98A758",
"D. c #A5A747",
"F. c #A5A455",
"G. c #B6B254",
"H. c #B79666",
"J. c #98A965",
"K. c #8EB074",
"L. c #B1B86C",
"P. c #C29859",
"I. c #CBBD58",
"U. c #D6BD5A",
"Y. c #EEB45A",
"T. c #D4AC6C",
"R. c #CCBD68",
"E. c #D3B569",
"W. c #D7AD73",
"Q. c #D8B075",
"!. c #C9B27A",
"~. c #D8A761",
"^. c #BEC65C",
"/. c #BDC463",
"(. c #BAC66C",
"). c #B6CA6D",
"_. c #BBCA6C",
"`. c #B9C768",
"'. c #BBC674",
"]. c #BBCB72",
"[. c #B9C777",
"{. c #ADC476",
"}. c #C2C45E",
"|. c #CCC35B",
" X c #C8C759",
".X c #D2C555",
"XX c #C3C563",
"oX c #C4C964",
"OX c #C4C56A",
"+X c #C4CA6B",
"@X c #CAC568",
"#X c #C4C776",
"$X c #D6C366",
"%X c #337780",
"&X c #417A83",
"*X c #368298",
"=X c #35838A",
"-X c #539496",
";X c #4F938E",
":X c #4B94AE",
">X c #99BC86",
",X c #9CBD94",
"<X c #9CBA9A",
"1X c #A2BA99",
"2X c #B7B492",
"3X c #BABAB9",
"4X c #A5B9A2",
"5X c #C4B59B",
"6X c #C2BCBB",
"7X c #9CC295",
"8X c #B0C988",
"9X c #AAC5A9",
"0X c #B1C6AF",
"qX c #C5C481",
"wX c #C8C399",
"eX c #E3E0BF",
"rX c #BABCC1",
"tX c #DEDDDC",
"yX c #E2DEDD",
"uX c #EDDEC8",
"iX c #DDE4D9",
"pX c #DAE3CD",
"aX c #E5E4CB",
"sX c #E3E2DC",
"dX c #E7E2D3",
"fX c #DEDDE2",
"gX c #E1DEE4",
"hX c #DDE2E4",
"jX c #E3E2E4",
"kX c #E8E4E7",
/* pixels */
"* $ & O = = $ O O O + & * @ = o & & % % $ $ & & $ $ % % @ = & + & + % = % * + & $ & * & & & + + & @ # # yXyXdXyX",
"@ C Z C | | ..| B F F B | | n G A z D h M h D j j j j j z A D j j z M A n D c c j j M D D z c z A G f f 2X5X5XuX",
"& m C N @.1X$.1X@.1XO.<X@.,XG {.[.].].#X(.[.).].].).).)._._.(.).).).).`.#X`.+X/._.).'.).[.).)._.(._._.OXZ.H.H.H.",
"& M m ..%.<.<.>.>.<.>.,.2.;.+.U a 8 6 e s q 5 q i s w w 8 q i q 5 q 5 4 q e w w q 5 i y t a 4 q e 4 4 , T.Q.T.Q.",
"+ C V ..@./ / ' ' / ' ( ' ' #.U I. X X}.D.}./.XX@XD./._.@XXXD./.+X/.XXG.oXG.@XoXD.oXL.$XXXD.@XXX}.}. XI.V.C.P.C.",
"& m V o.&.! ' / ' ! [ ' [ ' &.P @X8 8 4 4 4 i q 9 6 i 6 6 9 6 i t t 6 7 i q q 6 6 6 t t i s e 6 e 4 q : E.T.W.Q.",
"= N V | #./ ' ' ] / / ' _ / ;.b /.r .X.XoXoX/.`.R.OXXXXXXXXX@XOXOXOXOXXX+X}.XX/.@XoX+XXX/.OX/.oXoXoX}.R.P.P.P.P.",
"% ......&./ / ) / / / ( ' ( %.S _.r  X8 6 y 2 p t t 4 r q 4 9 9 t t 6 s 6 e 6 t w q w t t i w 4 6 e 9 , T.W.W.W.",
"% V V | &.-.<.<.1.1.;.1.>.#.*.F _.w }.a x A n v @Xb. X^. X^.D.+X+X^.oXD.^.oX#XOXD.}.oX^.}.D.}.oXXX/.+XOXC.H.P.H.",
"$ - V ..*.1X@.4X$.1X$.1X@.9XX.A [.a _.2 h .. .h }.0 r w w w q i w e w w q t u t 4 q q 4 e q e w t i 4 : E.T.W.W.",
"& V Z V X.*.X.X.} +.} O.X.+.F 8X8Xp `.2 D ..V D /.r I..X}./.+X_.+X}. X XoXOXR.@XXXXX/.oXoXOXXX/.XXXXoX@XC.P.C.P.",
"& C C N O.<X{ <XX.1X+.1XO.,XA z z v _.2 k - V h ].e .X8 q a u u p a w 0 0 0 u 0 0 e w i 5 i 6 q 6 4 9 : T.W.W.T.",
"& m m | &.#.2.1.<.1.#.<.&.$.+.F M c `.5 k.M m D _.4 XXi 1 A.Z.M.J l 9 U.6.Y.Y.t.Y.u.r ^.A./.+X}.XXoX}.$XV.P.C.P.",
"O k.V N -./ / ^ ^ ] / ! / ( %.| V j _.1 k k.m z ).q OXy 2 a f.f.x.x F.E.X Y.Y.< U.D.4 oXq i 4 r 9 9 4 : E.W.W.T.",
"= N ..X.&.) ) ) ` ^ ] _ [ / ,.} ..h ].p k k.m j ].q OXi 1 p M.j.m.P S.2 K L g L p A.5 XXq oX/./.oXXXoX@XV.P.C.P.",
"& B V O.&.) / ) ] ) _ [ _ ' -.+.F z _.p j m k.M {.5 OX6 p S.H.M.P F M M m m V m j 2 a XXw _.a 5 w e 4 , E.W.T.W.",
"+ M V X.<.) _ ' _ _ [ [ ` ^ :.P p y /.p z C - D [.q ^.a 2 l L L A +.B C V V C m V D 2 oXw `.2 2 ^..XI.$XV.P.P.P.",
"O k.N | &.<.#.<.1.1.>.,.<.;.U #XOX/./.a x A B z ].w ^.a 2 J.J.m.G C Z M h z h M M z a oXw ).k.v oX0 0 , T.T.T.T.",
"* -  .R X.<XX.<XX.,XX.<XX.8XL t i i w w a p p a `.q ^.5 l g h.h.x.S j S.D.t K S.A.e 6 }.q ).k j /.8 .XE.V.P.C.P.",
"% V V V F G S x S F N o.X.+.L.@X#X[.[.[.!.#X8XJ.[.y ].K v U h.h.x.z c 2 |.@Xp K $XI.r }.w ].D z /.r U., !.!.!.!.",
"& M M z #Xn.I..XN.qXS h +.} wX:.:.:.:.:.:.:.;.;.:.:.b S z J.S.B.A Z k c N.N.x x n.n.9 @Xt [.n h ).q +X: 2X5X5XuX",
"& n f J.#Xn..X Xv.qXS.L F 7X2X:.) ! ^ ~ ^ [ / ' [ 1.4X,XA x Y J F C m n [.#XF F !.R.u OX7 [.M D ].5 `.: eXaXuXdX",
"* B x J.3 k.3 c D f J.U n H *.#.( ] [ ' ) / ) ) ` 1.$.} G S.Z.j.b | | F qXF.F n #XD.t XXi ).k j ).w oX> aX3XsXsX",
"* F P L k.k k.M h D b b F 7X9X#./ ! ' _ ] ) ) ] [ 1.4X1XA 1 f.j.x.A +.S M.B.A A N.n.6 XXi ).j j _.w /.: aXsX3XhX",
"@ b j.Z.J.c z v A.D.z F X.O.@.#./ ' ' ' ^ ^ ` [ [ 1.@.} z l v.f.x.A h l @X$XK l @X|.w /.q ).c j ].q XX> aX6XgX3X",
"d m.f.f.J g x [.oX7 D o.X.<X9X&./ ' ' / ^ ^ ` ` [ 1.1X1Xf J.S.M.l v v A.D.9 y A.D.8 r  Xw `.k c ].s XX: dXgXkXgX",
"3 x.f.f.J v g v.v.2 D C ..| %.#./ / / ` ^ ` [ _ _ 1.$.O.N n S x K 6 y i u y s u 8 8 u..Xw ).D z #X9 }.: dXfXgXjX",
"o g v.V.F.L 1 [.[.x Z k.N 7X9X>./ _ ^ ` ` ` ` ` ` 1.1X<Xo.N N A #X@XR.R.R.$XR.#XR.U.U.U.i ).n z (.q }.: aXfXjXfX",
"+ A J J g l K #XS.K n N O.=.$.>.] ) ' / ' ' ` ` ` -.#.O.o.- o.F 8XJ Y u r.r.r.p.r.u.r.u.u 8Xn M _.q /.: aXjX3XjX",
"= b m.J.J.v 1 v.v.p A V | <X0X>.' ` ' ' / ] ` ` ^ 1.1X,X..V V +.L.Y 5.e.y.y.s.s.e.e.e.p.u ).B n _.q ^.: aXhXjXtX",
"d m.j.j.S h j [.@Xy h V B O.#.1./ ] ' ! ^ ) ! / ^ <.@.O.N V ..>XF.r.5.8.7.4.7.7.7.7.7.5.t.V.>XM ].6 oX: aXjXjXjX",
"d h.j.j.b M M v F.S.M V B ,X0X-.) ^ ` ` ^ ^ ) / ! <.4X,X..V ..A F.V.5.7.7.7.7.7.7.7.7.5.P.F.A M '.i +X> aXhXfX3X",
"@ F m.F.J.z M n z h - k.o.O.#.>./ ) ` ` / ^ / ) ! <.@.+...V N B M J   . . . . . . . . . } f C n ).q  X: aX3XfXfX",
"$ n A x g x B ..C M V  . .7X9X>./ ] ` ` ] ' ` ` ] <.4X,XN V ..V C S g.i.d.s.d.d.d.p.p.a.} B n v ].5 }.: pXhXfXrX",
"; ..H K.J.g F K.K.n Z V | X.@.>./ _ ] ` ` _ ] ` ` <.@.X...V V C >XY 5.q.w.q.q.9.q.q.q.s.I L.[.(.'.y #X> iXkXkXfX",
"# X.*.{ F +.X.=.N V C n B 7X9X#.' ' ` ` ` ' ` ` ! >.4X,X..V ..>XJ.g.7.0.0.0.w.0.0.0.0.7.g.S.L.i p p (.> pX0XhXkX",
"# =.;X;Xc.z.-X-X;XR V C B } @.#./ ) ` ` ` ^ ` ` ! 1.#.| ..- k.B J.C.7.4.8.4.4.8.4.4.4.7.V.F.@X@X#XOXOX: aXgX6XgX",
"* =.:X=Xz.Q :X*X=XE  .C B ,X0X#./ _ _ ] ` ' ` ` ^ 1.<X,Xm k.- F P g.6.3.3.3.3.3.3.3.3.. u J u 6 6 t OX: aXyXgXyX",
"& R -X*XQ Q :X*XQ z.R V +.O.@.<./ ' ] _ ' / _ ] ] <.%.o.V k.k.V +.P p.s.e.d.p.d.d.s.s.p.I g p t q 6 @X: dXyXkXyX",
"& R -X=XW W :X*XW R R V N ,X0X<./ ' ] ] ' ' ] ] / 1.<X<X..- R m >XP < y.i.5.s.e.e.y.y.r.Y L.#X/.A.oX/.: aXyXsX3X",
"* R :X%X%X%X:X&XW E o. ...X.#.1./ ^ ` ^ ) ) ^ ` ^ 1.$.O.| ..B >XZ.r.5.9.8.8.4.w.9.9.8.7.r.V.G.s 9 4 +X> aX6XsXsX",
"% k.;Xz.Q Q :X&XE R o.V X.,X0X#.( / / ) / / / / ^ -.<X7X| V +.z F.V.5.7.7.7.8.8.8.7.8.5.P.D.#X#X_.].A.> aXyXjX3X",
"* ..{ { } { *.{ N ..k.k.m N o.*.%.%.&.&.%.&.%.%.$.&.X...m V - C h L   . . . . . . . .   J h c c j j z @ pXjXiXiX",
"& Z H K.K.b n K.x.k. . .m C B ..| X.X.X.| | O.O.O.| N k.m m k.m V A P T T :.T I I I I g C V m m m m m ; iXhXjX3X",
"o & @ = = = @ + = = O $ & & & & # = # * = = * = # # & O O O O & & = d d d d d d d d d @ * % % * % % & ; iXtXtXsX"
};
